<svg width="302" height="303" viewBox="0 0 302 303" fill="none" xmlns="http://www.w3.org/2000/svg">
<circle cx="69.6922" cy="70.1922" r="13.2747" fill="#6FC5C6"/>
<circle cx="69.6922" cy="232.808" r="13.2747" fill="#5FADAD"/>
<circle cx="232.308" cy="70.1922" r="13.2747" fill="#6FC5C6"/>
<circle cx="232.308" cy="232.808" r="13.2747" fill="#5FADAD"/>
<path d="M139.385 232.808C139.385 223.655 137.582 214.593 134.08 206.137C130.577 197.682 125.444 189.999 118.972 183.528C112.501 177.056 104.818 171.923 96.3624 168.42C87.9069 164.918 78.8444 163.115 69.6923 163.115L69.6923 201.446C73.8108 201.446 77.8889 202.257 81.6938 203.833C85.4988 205.409 88.9561 207.719 91.8683 210.632C94.7805 213.544 97.0905 217.001 98.6666 220.806C100.243 224.611 101.054 228.689 101.054 232.808H139.385Z" fill="#5FADAD"/>
<path d="M69.6925 139.885C78.8446 139.885 87.9071 138.082 96.3626 134.58C104.818 131.077 112.501 125.944 118.972 119.472C125.444 113.001 130.577 105.318 134.08 96.8624C137.582 88.4069 139.385 79.3444 139.385 70.1923L101.054 70.1923C101.054 74.3108 100.243 78.3889 98.6667 82.1938C97.0907 85.9988 94.7806 89.4561 91.8684 92.3683C88.9562 95.2805 85.499 97.5905 81.694 99.1666C77.889 100.743 73.8109 101.554 69.6925 101.554L69.6925 139.885Z" fill="#6FC5C6"/>
<path d="M162.615 70.1925C162.615 79.3446 164.418 88.4071 167.92 96.8626C171.423 105.318 176.556 113.001 183.028 119.472C189.499 125.944 197.182 131.077 205.638 134.58C214.093 138.082 223.156 139.885 232.308 139.885L232.308 101.554C228.189 101.554 224.111 100.743 220.306 99.1667C216.501 97.5907 213.044 95.2806 210.132 92.3684C207.22 89.4562 204.909 85.999 203.333 82.194C201.757 78.389 200.946 74.3109 200.946 70.1925L162.615 70.1925Z" fill="#6FC5C6"/>
<path d="M232.308 163.115C223.155 163.115 214.093 164.918 205.637 168.42C197.182 171.923 189.499 177.056 183.028 183.528C176.556 189.999 171.423 197.682 167.92 206.138C164.418 214.593 162.615 223.656 162.615 232.808L200.946 232.808C200.946 228.689 201.757 224.611 203.333 220.806C204.909 217.001 207.219 213.544 210.132 210.632C213.044 207.72 216.501 205.409 220.306 203.833C224.111 202.257 228.189 201.446 232.308 201.446V163.115Z" fill="#5FADAD"/>
</svg>
