<svg width="120" height="32" viewBox="0 0 120 32" fill="none" xmlns="http://www.w3.org/2000/svg">
<path d="M3.17639 9.44548L0 12.6319V12.7457L3.17639 15.9321V9.44548Z" fill="#09215B"/>
<path d="M16.5626 3.86923V12.6319H25.2977V12.5181L25.0708 12.2905H24.9573L24.8439 12.1767V12.0629H24.7304L16.5626 3.86923Z" fill="#081F52"/>
<path d="M12.5921 0L7.37376 5.23484V20.1428L12.5921 25.3776H12.7056L19.739 18.3219H19.8524L19.9659 18.2081V18.0943L20.0793 17.9805H20.1928V17.8667L20.4196 17.6391H20.5331L21.5541 16.6149V16.5011H12.7056L12.5921 16.3873V0Z" fill="url(#paint0_linear_205_2)"/>
<path d="M12.6158 16.4622L21.8377 16.4622L12.6158 25.4345L12.6158 16.4622Z" fill="#081F52"/>
<path d="M32.7263 20.0085V18.106L40.0797 7.85078H32.9622V5.76515H42.8488V7.65748L35.5261 17.9127H42.9103V20.0085H32.7263Z" fill="#081F52"/>
<path d="M43.9868 20.0085L49.566 5.76515H52.0582L57.7809 20.0085H55.1862L53.8632 16.6104H47.7815L46.5098 20.0085H43.9868ZM48.3763 14.6469H53.2478L50.7659 8.44086L48.3763 14.6469Z" fill="#081F52"/>
<path d="M59.8599 20.0085V5.76515H62.0855L67.9415 15.2166L67.0493 15.2268L72.69 5.76515H74.8744V20.0085H72.6284L72.6592 8.79695L73.1002 8.94955L68.2184 16.936H66.5365L61.5624 8.94955L61.9316 8.79695L61.9624 20.0085H59.8599Z" fill="#081F52"/>
<path d="M77.8518 20.0085V18.106L85.2052 7.85078H78.0877V5.76515H87.9743V7.65748L80.6517 17.9127H88.0358V20.0085H77.8518Z" fill="#081F52"/>
<path d="M89.1124 20.0085L94.6916 5.76515H97.1837L102.906 20.0085H100.312L98.9887 16.6104H92.907L91.6353 20.0085H89.1124ZM93.5019 14.6469H98.3734L95.8915 8.44086L93.5019 14.6469Z" fill="#081F52"/>
<path d="M104.985 20.0085V5.76515H107.211L113.067 15.2166L112.175 15.2268L117.816 5.76515H120V20.0085H117.754L117.785 8.79695L118.226 8.94955L113.344 16.936H111.662L106.688 8.94955L107.057 8.79695L107.088 20.0085H104.985Z" fill="#081F52"/>
<path d="M48.3144 31.8779V26.1806H48.938V28.545H52.0639V26.1806H52.6875V31.8779H52.0639V29.1188H48.938V31.8779H48.3144Z" fill="#56AEF8"/>
<path d="M54.2756 31.8779V26.1806H57.7667V26.7422H54.8992V28.6019H57.4221V29.1473H54.8992V31.3123H57.7913V31.8779H54.2756Z" fill="#56AEF8"/>
<path d="M58.5105 31.8779L60.7955 26.1806H61.4026L63.7738 31.8779H63.0723L62.4569 30.3844H59.7781L59.1915 31.8779H58.5105ZM59.9709 29.8269H62.2559L61.0826 27.0026L59.9709 29.8269Z" fill="#56AEF8"/>
<path d="M64.6997 31.8779V26.1806H65.3232V31.3041H67.9569V31.8779H64.6997Z" fill="#56AEF8"/>
<path d="M69.4697 31.8779V26.7503H67.8001V26.1806H71.7629V26.7503H70.0933V31.8779H69.4697Z" fill="#56AEF8"/>
<path d="M72.8242 31.8779V26.1806H73.4478V28.545H76.5737V26.1806H77.1973V31.8779H76.5737V29.1188H73.4478V31.8779H72.8242Z" fill="#56AEF8"/>
<path d="M81.3699 32C80.7764 32 80.2581 31.8766 79.8151 31.6297C79.3748 31.3828 79.0329 31.0355 78.7895 30.5879C78.5461 30.1402 78.4244 29.6193 78.4244 29.0252C78.4244 28.5938 78.4969 28.1991 78.6418 27.8409C78.7868 27.4801 78.9905 27.1668 79.2531 26.9009C79.5183 26.6323 79.8301 26.4248 80.1884 26.2783C80.5494 26.1317 80.9446 26.0585 81.374 26.0585C81.7814 26.0585 82.1425 26.11 82.457 26.2131C82.7715 26.3135 83.0409 26.456 83.2651 26.6404L82.9205 27.1451C82.7264 26.9769 82.5035 26.8521 82.2519 26.7707C82.0002 26.6893 81.724 26.6486 81.4232 26.6486C81.0676 26.6486 80.7449 26.7042 80.455 26.8154C80.1679 26.9267 79.9204 27.0854 79.7125 27.2916C79.5074 27.495 79.3488 27.7433 79.2366 28.0363C79.1272 28.3266 79.0725 28.6549 79.0725 29.0211C79.0725 29.5257 79.171 29.9557 79.3679 30.3111C79.5648 30.6638 79.8424 30.9338 80.2007 31.121C80.5617 31.3082 80.9856 31.4018 81.4724 31.4018C81.7842 31.4018 82.0796 31.357 82.3585 31.2675C82.6402 31.1752 82.9014 31.0247 83.1421 30.8158L83.4374 31.3448C83.153 31.5673 82.8385 31.7328 82.4939 31.8413C82.152 31.9471 81.7773 32 81.3699 32Z" fill="#56AEF8"/>
<path d="M83.8295 31.8779L86.1145 26.1806H86.7217L89.0928 31.8779H88.3913L87.776 30.3844H85.0971L84.5105 31.8779H83.8295ZM85.2899 29.8269H87.5749L86.4017 27.0026L85.2899 29.8269Z" fill="#56AEF8"/>
<path d="M90.0187 31.8779V26.1806H92.0822C92.4596 26.1806 92.785 26.2484 93.0585 26.3841C93.3347 26.5197 93.5467 26.7123 93.6944 26.9619C93.8448 27.2088 93.92 27.4991 93.92 27.8328C93.92 28.1204 93.8544 28.3741 93.7231 28.5938C93.5918 28.8136 93.4059 28.9926 93.1652 29.131C92.9273 29.2666 92.6456 29.3535 92.3201 29.3914L94.1785 31.8779H93.4031L91.6104 29.4443H90.6423V31.8779H90.0187ZM90.6423 28.899H91.9386C92.368 28.899 92.7002 28.8054 92.9354 28.6182C93.1734 28.431 93.2924 28.1747 93.2924 27.8491C93.2924 27.51 93.1884 27.2387 92.9806 27.0352C92.7755 26.8317 92.4569 26.73 92.0247 26.73H90.6423V28.899Z" fill="#56AEF8"/>
<path d="M95.3469 31.8779V26.1806H98.838V26.7422H95.9705V28.6019H98.4934V29.1473H95.9705V31.3123H98.8626V31.8779H95.3469Z" fill="#56AEF8"/>
<defs>
<linearGradient id="paint0_linear_205_2" x1="60" y1="0" x2="60" y2="32" gradientUnits="userSpaceOnUse">
<stop stop-color="#49A6FD"/>
<stop offset="1" stop-color="#60B4F5"/>
</linearGradient>
</defs>
</svg>
